<svg width="11" height="12" viewBox="0 0 11 12" fill="none" xmlns="http://www.w3.org/2000/svg">
<path d="M5.82881 1.07061C5.76705 0.945448 5.63958 0.866211 5.50001 0.866211C5.36044 0.866211 5.23298 0.945448 5.17121 1.07061L3.67016 4.1121L0.313984 4.59947C0.175858 4.61953 0.0610989 4.71627 0.0179618 4.84901C-0.0251752 4.98175 0.0107918 5.12747 0.110739 5.2249L2.53936 7.59223L1.96589 10.9353C1.94229 11.0729 1.99884 11.2119 2.11175 11.294C2.22467 11.376 2.37437 11.3868 2.49791 11.3219L5.50001 9.74347L8.50211 11.3219C8.62565 11.3868 8.77535 11.376 8.88827 11.294C9.00118 11.2119 9.05773 11.0729 9.03413 10.9353L8.46066 7.59223L10.8893 5.2249C10.9892 5.12747 11.0252 4.98175 10.9821 4.84901C10.9389 4.71627 10.8242 4.61953 10.686 4.59947L7.32986 4.1121L5.82881 1.07061Z" fill="#101828"/>
</svg>
