<svg width="24" height="25" viewBox="0 0 24 25" fill="none" xmlns="http://www.w3.org/2000/svg">
<path fill-rule="evenodd" clip-rule="evenodd" d="M15.9995 12.5001C15.9995 12.7281 15.9225 12.9551 15.7675 13.1401L10.7675 19.1401C10.4145 19.5641 9.7835 19.6221 9.3595 19.2681C8.9355 18.9151 8.8785 18.2851 9.2315 17.8601L13.7075 12.4891L9.39249 7.12709C9.04649 6.69709 9.11449 6.06709 9.54449 5.72109C9.97449 5.37509 10.6035 5.44309 10.9505 5.87309L15.7785 11.8731C15.9255 12.0561 15.9995 12.2781 15.9995 12.5001Z" fill="#98A2B3"/>
<mask id="mask0_1702_8514" style="mask-type:luminance" maskUnits="userSpaceOnUse" x="9" y="5" width="7" height="15">
<path fill-rule="evenodd" clip-rule="evenodd" d="M15.9995 12.5001C15.9995 12.7281 15.9225 12.9551 15.7675 13.1401L10.7675 19.1401C10.4145 19.5641 9.7835 19.6221 9.3595 19.2681C8.9355 18.9151 8.8785 18.2851 9.2315 17.8601L13.7075 12.4891L9.39249 7.12709C9.04649 6.69709 9.11449 6.06709 9.54449 5.72109C9.97449 5.37509 10.6035 5.44309 10.9505 5.87309L15.7785 11.8731C15.9255 12.0561 15.9995 12.2781 15.9995 12.5001Z" fill="white"/>
</mask>
<g mask="url(#mask0_1702_8514)">
<rect y="24.5" width="24" height="24" transform="rotate(-90 0 24.5)" fill="#98A2B3"/>
</g>
</svg>
