<svg width="24" height="24" viewBox="0 0 24 24" fill="none" xmlns="http://www.w3.org/2000/svg">
<path d="M18.4979 6L20.688 10.5C20.8954 11.1463 21 11.8212 20.9979 12.5C20.9987 13.5092 20.7641 14.5047 20.3128 15.4074C19.8614 16.3101 19.2058 17.0951 18.3979 17.7C15.3979 20.2 10.9979 22 6.99795 22C6.4412 21.9992 5.89564 21.8436 5.42233 21.5504C4.94902 21.2572 4.56663 20.8381 4.31795 20.34L2.39795 16.5M14.998 8.5C14.998 9.88071 13.8788 11 12.498 11C11.1173 11 9.99805 9.88071 9.99805 8.5C9.99805 7.11929 11.1173 6 12.498 6C13.8788 6 14.998 7.11929 14.998 8.5ZM12.498 2C11.1052 1.99917 9.74898 2.44573 8.62915 3.2739C7.50932 4.10207 6.68513 5.26804 6.278 6.6C5.178 9.73 5.498 10.5 3.098 12.68C2.61976 13.0721 2.27438 13.6024 2.10911 14.1983C1.94385 14.7942 1.96678 15.4266 2.17477 16.009C2.38277 16.5914 2.76566 17.0953 3.27104 17.4517C3.77642 17.8081 4.37959 17.9996 4.998 18C8.998 18 13.398 16.2 16.398 13.7C17.4894 12.8815 18.2956 11.7403 18.7023 10.4381C19.1091 9.13591 19.0959 7.73875 18.6644 6.44452C18.233 5.15029 17.4053 4.02461 16.2986 3.22693C15.1919 2.42924 13.8622 2 12.498 2Z" stroke="black" stroke-width="2" stroke-linecap="round" stroke-linejoin="round"/>
</svg>
