<svg width="96" height="96" viewBox="0 0 96 96" fill="none" xmlns="http://www.w3.org/2000/svg">
<path d="M0 48C0 8.472 8.472 0 48 0C87.528 0 96 8.472 96 48C96 87.528 87.528 96 48 96C8.472 96 0 87.528 0 48Z" fill="#F7F7F7"/>
<path d="M36 60H60M36 41.3333V42.6667C36 43.7275 36.4214 44.7449 37.1716 45.4951C37.9217 46.2452 38.9391 46.6667 40 46.6667C41.0609 46.6667 42.0783 46.2452 42.8284 45.4951C43.5786 44.7449 44 43.7275 44 42.6667M36 41.3333H60M36 41.3333L38.6667 36H57.3333L60 41.3333M44 42.6667V41.3333M44 42.6667C44 43.7275 44.4214 44.7449 45.1716 45.4951C45.9217 46.2452 46.9391 46.6667 48 46.6667C49.0609 46.6667 50.0783 46.2452 50.8284 45.4951C51.5786 44.7449 52 43.7275 52 42.6667M52 42.6667V41.3333M52 42.6667C52 43.7275 52.4214 44.7449 53.1716 45.4951C53.9217 46.2452 54.9391 46.6667 56 46.6667C57.0609 46.6667 58.0783 46.2452 58.8284 45.4951C59.5786 44.7449 60 43.7275 60 42.6667V41.3333M38.6667 60V46.4667M57.3333 60V46.4667M44 60V54.6667C44 53.9594 44.281 53.2811 44.781 52.781C45.2811 52.281 45.9594 52 46.6667 52H49.3333C50.0406 52 50.7189 52.281 51.219 52.781C51.719 53.2811 52 53.9594 52 54.6667V60" stroke="#D0D5DD" stroke-width="2.66667" stroke-linecap="round" stroke-linejoin="round"/>
</svg>
