<svg width="72" height="56" viewBox="0 0 72 56" fill="none" xmlns="http://www.w3.org/2000/svg">
<rect width="72" height="56" rx="28" fill="#F7F7F7"/>
<path d="M46.0014 32.9201V35.9201C46.0025 36.1986 45.9455 36.4743 45.8339 36.7294C45.7223 36.9846 45.5587 37.2137 45.3535 37.402C45.1483 37.5902 44.906 37.7336 44.6421 37.8228C44.3783 37.912 44.0988 37.9452 43.8214 37.9201C40.7442 37.5857 37.7884 36.5342 35.1914 34.8501C32.7752 33.3148 30.7267 31.2663 29.1914 28.8501C27.5014 26.2413 26.4496 23.2711 26.1214 20.1801C26.0964 19.9036 26.1293 19.6249 26.2179 19.3617C26.3065 19.0986 26.449 18.8568 26.6362 18.6517C26.8234 18.4466 27.0512 18.2828 27.3052 18.1706C27.5592 18.0584 27.8337 18.0004 28.1114 18.0001H31.1114C31.5967 17.9953 32.0672 18.1672 32.4352 18.4836C32.8031 18.8001 33.0435 19.2395 33.1114 19.7201C33.238 20.6802 33.4728 21.6228 33.8114 22.5301C33.9459 22.888 33.9751 23.277 33.8953 23.651C33.8155 24.0249 33.6303 24.3682 33.3614 24.6401L32.0914 25.9101C33.515 28.4136 35.5879 30.4865 38.0914 31.9101L39.3614 30.6401C39.6333 30.3712 39.9766 30.1859 40.3505 30.1062C40.7245 30.0264 41.1135 30.0556 41.4714 30.1901C42.3787 30.5286 43.3213 30.7635 44.2814 30.8901C44.7672 30.9586 45.2108 31.2033 45.5279 31.5776C45.8451 31.9519 46.0136 32.4297 46.0014 32.9201Z" stroke="black" stroke-width="2" stroke-linecap="round" stroke-linejoin="round"/>
</svg>
